PathFileType	4	(X/Y/Z)	65_1_38_p0_0-268_filt_butterworth.trc
DataRate	CameraRate	NumFrames	NumMarkers	Units	OrigDataRate	OrigDataStartFrame	OrigNumFrames
48.0	48.0	5	27	m	48.0	67	268
Frame#	Time	RHip			RKnee			RAnkle			RBigToe			RSmallToe			RHeel			LHip			LKnee			LAnkle			LBigToe			LSmallToe			LHeel			Neck			Head			Nose			RShoulder			RElbow			RWrist			RThumb			RIndex			RPinky			LShoulder			LElbow			LWrist			LThumb			LIndex			LPinky			
		X1	Y1	Z1	X2	Y2	Z2	X3	Y3	Z3	X4	Y4	Z4	X5	Y5	Z5	X6	Y6	Z6	X7	Y7	Z7	X8	Y8	Z8	X9	Y9	Z9	X10	Y10	Z10	X11	Y11	Z11	X12	Y12	Z12	X13	Y13	Z13	X14	Y14	Z14	X15	Y15	Z15	X16	Y16	Z16	X17	Y17	Z17	X18	Y18	Z18	X19	Y19	Z19	X20	Y20	Z20	X21	Y21	Z21	X22	Y22	Z22	X23	Y23	Z23	X24	Y24	Z24	X25	Y25	Z25	X26	Y26	Z26	X27	Y27	Z27	
67	1.3958333333333333	0.3827227482919514	0.6056547085666839	0.3522333750981619	0.37128249445549133	0.862345854068805	0.7308111852818023	0.3076382376648134	0.9917952780037625	1.1412148565346927	0.30034903147650927	0.9160866778509797	1.2364319822911845	0.36311581102624274	0.9294991076538665	1.2214283958493835	0.27431390830704466	1.0794763370568923	1.1913539896942564	0.15898844698678344	0.6546565700995179	0.3364812152143017	0.13195933401277915	0.8687128676351159	0.7179083822132604	0.09768600451291994	1.0567756668904373	1.1411630909383434	0.1178066908505373	0.8507181969736769	1.1865226698405178	0.0629940314546823	0.9126408250109259	1.181068078511836	0.09950222682050089	1.0870332667395106	1.177367619923172	0.3217214380762671	0.5147612420659359	-0.2098402607060714	0.3677184222151744	0.3771066537754761	-0.4405385871853381	0.33511386341126914	0.3678253386398057	-0.2895522921927758	0.4798754823052953	0.5247312771667454	-0.10527122367141366	0.5093443458467983	0.5273990011586375	0.1623651890234222	0.3473763168233501	0.47055762767154447	0.3630414170072761	0.25499257366373485	0.4884251900186378	0.44159431687888245	0.2578088836185815	0.5051269456921205	0.446960616438287	0.2748176798839351	0.5597842817438476	0.452437915344583	0.17950524716723384	0.5243850641031216	-0.15279888934670796	0.11495563418196782	0.5439962940578605	0.09856780898211279	0.20710298957480988	0.48472045544604725	0.3498190515210784	0.27928394274606044	0.471846189069119	0.4263651116514336	0.27418931090046506	0.49249014754993925	0.44668360759074777	0.24495523687809828	0.4948261172760068	0.4490500636702693
68	1.4166666666666667	0.38354344662426854	0.6016885680629045	0.35101114133547756	0.3695748999658393	0.8552900576593567	0.7285110257934913	0.30766422205381205	0.9918348319910628	1.1413086106642978	0.2995774174156277	0.9095045236952815	1.2339722647824374	0.3625553924104851	0.9186350506356931	1.216433787106858	0.2751113588823981	1.0834677218776647	1.1924504566981189	0.15906257298538012	0.6546865274419158	0.33649297276271606	0.1319538057318037	0.8686635024426903	0.7179153162974004	0.09769892431497533	1.0568069513015175	1.1409227710062861	0.11735259571378519	0.850587910313118	1.1845850867438514	0.06272627903032459	0.9118966189115932	1.1810457633415146	0.09932177539719572	1.0866263986917715	1.1765792050004962	0.321675104847733	0.5148287524315159	-0.2098469586794096	0.3668063153591753	0.3724363328816594	-0.439713947825184	0.33511902826168216	0.3678502070737394	-0.28955720509220434	0.47987549353527736	0.5247544999623138	-0.1052893823211159	0.5092651001874505	0.5271667056688092	0.16235343571146238	0.34731023463172994	0.4706721990019392	0.3633423616314535	0.2549562618711391	0.4882904731799773	0.44160193399066694	0.25778455901455327	0.5049284091150489	0.44703886612096955	0.27481226523759783	0.5597687755997246	0.4524963333430047	0.17757313598717564	0.5241845171743633	-0.15183543003206162	0.11462903875804135	0.5443665790356947	0.10121994596198008	0.20711997639152907	0.48471936813466293	0.34981500504816854	0.2790295105701968	0.4719107906704349	0.4263593482493352	0.2742091451578558	0.492538831550646	0.44664882345481405	0.24494631970819064	0.49492521816309604	0.4490451909781133
69	1.4375	0.38388249107980554	0.6001798098315334	0.3505988259372349	0.3684681482374014	0.8508383512417632	0.7274142160874465	0.30768468087147705	0.9918954552064149	1.141496392523193	0.2988872338508355	0.9059000813770388	1.2326677731959537	0.3623196818909216	0.9041828938028335	1.2139976605870104	0.27580580481112416	1.0867805973132008	1.1936034705223026	0.15911300452119367	0.6546948958454175	0.3364671774307824	0.13195151991627865	0.8686509706676182	0.7179245635118446	0.09771660375848845	1.0568245413014326	1.14080236036509	0.11709177648057809	0.8503421705525848	1.1834699233651624	0.06258901879794733	0.9118400125305817	1.1810614357421665	0.09925184601397727	1.0867594611832725	1.1754080697597697	0.3216605408004494	0.5148854860144513	-0.2098611833327803	0.3651960020664328	0.3689442021342169	-0.4389503701709235	0.33512468473377754	0.36788366937700756	-0.28956494741216443	0.4798706657904943	0.524805407131036	-0.10525972196708844	0.5091107634519239	0.5267864438067368	0.16231828629479872	0.34742124875457203	0.47059397140849163	0.36301576599091967	0.2549189382082109	0.4881512093688184	0.441606591188353	0.2578132386005643	0.5048746125189505	0.4470718512298676	0.2748121629392274	0.5597562635296904	0.45251458302872805	0.17611927701074115	0.5240496378011767	-0.15045004808736676	0.11420583266101435	0.5449445062047238	0.10385122928105917	0.20713519372486344	0.48473434641111707	0.34982113745362076	0.2789707788352707	0.4717190391125074	0.4263436773394049	0.2742247986489638	0.4925706916186535	0.4466503271981873	0.24487544945852535	0.4949997585145911	0.4490529888387209
70	1.4583333333333333	0.3838333041007028	0.6005465857367009	0.3508945201961743	0.3681757262709955	0.8497217348218883	0.7271885260204339	0.3077049783443871	0.9920284443349585	1.1413015264585953	0.29858302251239327	0.9066236238311879	1.2324944425599755	0.3625835486002298	0.8965467324115544	1.2144922137199283	0.27611844346657594	1.0883976089705585	1.1939067448171081	0.15913731120819608	0.6547067241820476	0.3364201209628769	0.13195554849159608	0.8686576812024481	0.7178734972979286	0.09773320749414878	1.0568219013570628	1.1407963274468118	0.1174695154221928	0.8501814540210532	1.183197951801331	0.06266422270879246	0.9121952645160161	1.1810852585930192	0.09936261075136009	1.0872070273003231	1.1744798237086704	0.3216670887626652	0.5149176992824235	-0.20988374482655622	0.36285604562244755	0.36773119991229625	-0.43876159273745163	0.33512697866678	0.36791704279063986	-0.2895681802219296	0.4798618894341392	0.5248560925092763	-0.10518133732755539	0.5093326069764781	0.5275333983600657	0.1622345609362199	0.3477145865221559	0.47025581013349593	0.36197628561983897	0.2549029003585319	0.4879310430508685	0.44161378640779175	0.2578607479503592	0.5048792884311195	0.4470570101053723	0.27482830991299007	0.5597577456974747	0.4525300537708062	0.17569967247677049	0.5240282668291603	-0.14952426722719533	0.11395572031550825	0.5453587444189276	0.10509795330202969	0.20715115157615832	0.48475839243959135	0.34982696650816886	0.2791368863003859	0.4713071887885726	0.42632603469924857	0.274226610375725	0.4925735728719384	0.4466671907790537	0.24484128901912972	0.49511252691304647	0.4490497883037245
71	1.4791666666666667	0.3837798005932039	0.6013613646433871	0.3520753836277358	0.3681678605677991	0.8499620892018868	0.7277890564318441	0.307755317101037	0.9923380592040713	1.1400785871912928	0.29711571333610054	0.9065052234192028	1.2319025647523776	0.3631733706393002	0.89812087309358	1.216070194022165	0.2757744829581076	1.0887180092749325	1.19224854250155	0.15915362141868677	0.6547428117086325	0.3364064493391136	0.1319622655148942	0.8687251881616119	0.7177940495984247	0.09773929001917357	1.056811985693601	1.1408029692848984	0.11810257146823107	0.8504673464650557	1.1831197773576232	0.06276402098330511	0.912417724942492	1.181092127685448	0.099497786524146	1.0874556777993483	1.1739393518850392	0.3216661897832872	0.5149163387888283	-0.20989678946172058	0.3610266869227286	0.3676517920471333	-0.43884268969223184	0.33513251183695714	0.36789842571210635	-0.2895586289588233	0.47990209984962606	0.5247937296857491	-0.10541141387517612	0.5104694792492205	0.5310630724719142	0.16214651004299674	0.348076404283555	0.469714545212399	0.3605674115719695	0.25490493219054206	0.4877962921363572	0.44162023269386796	0.2578365739549753	0.5048655062500695	0.44704404714031976	0.27485328142817456	0.5597578461152375	0.45256461192411324	0.1758159536845031	0.5240738188087836	-0.14934850580053838	0.1139231602092535	0.5454534402427438	0.10515745855039905	0.20716218565034508	0.4847309382068176	0.3498002965373452	0.27897170736752563	0.47198905232776345	0.42632539447802364	0.2742219862396421	0.4925694769829617	0.44664275745812354	0.2448581569288784	0.49517109465487463	0.44901191583126193
